<svg width="15" height="14" viewBox="0 0 15 14" fill="none" xmlns="http://www.w3.org/2000/svg">
<path d="M14.1866 4.9298L9.7917 4.29107L7.82706 0.308118C7.7734 0.199068 7.68512 0.110788 7.57607 0.0571283C7.30257 -0.0778871 6.97023 0.0346257 6.83348 0.308118L4.86883 4.29107L0.473912 4.9298C0.352744 4.94711 0.241962 5.00423 0.157145 5.09078C0.0546052 5.19617 -0.00189871 5.33796 4.87196e-05 5.48499C0.00199615 5.63202 0.0622356 5.77227 0.16753 5.87491L3.34732 8.97507L2.59608 13.3527C2.57846 13.4545 2.58973 13.5592 2.6286 13.655C2.66748 13.7508 2.73241 13.8337 2.81603 13.8944C2.89965 13.9552 2.99861 13.9912 3.10169 13.9986C3.20477 14.0059 3.30786 13.9843 3.39924 13.936L7.33027 11.8692L11.2613 13.936C11.3686 13.9931 11.4932 14.0122 11.6127 13.9914C11.9139 13.9395 12.1164 13.6539 12.0645 13.3527L11.3132 8.97507L14.493 5.87491C14.5796 5.79009 14.6367 5.67931 14.654 5.55814C14.7007 5.25522 14.4895 4.9748 14.1866 4.9298ZM9.97519 8.53886L10.6001 12.1791L7.33027 10.462L4.06047 12.1808L4.68535 8.54059L2.04044 5.96145L5.69624 5.43005L7.33027 2.11871L8.9643 5.43005L12.6201 5.96145L9.97519 8.53886Z" fill="#F9CE46"/>
<path d="M9.97519 8.53886L10.6001 12.1791L7.33027 10.462L4.06047 12.1808L4.68535 8.54059L2.04044 5.96145L5.69624 5.43005L7.33027 2.11871L8.9643 5.43005L12.6201 5.96145L9.97519 8.53886Z" fill="#F9CE46"/>
</svg>
