<svg width="62" height="11" viewBox="0 0 62 11" fill="none" xmlns="http://www.w3.org/2000/svg">
<path d="M1.56121 3.90574C1.25267 3.59707 1.04252 3.20391 0.95728 2.77589C0.872038 2.34786 0.915524 1.90417 1.08227 1.50085C1.24901 1.09753 1.53153 0.752677 1.89413 0.509806C2.25674 0.266932 2.68317 0.136952 3.1196 0.13627C6.57365 0.13627 8.3038 2.44729 9.59048 4.1587C10.8147 5.79516 11.3831 6.41352 12.5199 6.41352C13.6566 6.41352 14.2313 5.79517 15.4555 4.15871C16.7266 2.46292 18.4661 0.136259 21.9201 0.136258C25.3742 0.136257 27.1043 2.44729 28.391 4.1587C29.6152 5.79516 30.1836 6.41351 31.3204 6.41351C32.4572 6.41351 33.0287 5.79203 34.256 4.1587C35.524 2.45978 37.2666 0.136248 40.7207 0.136247C44.1747 0.136248 45.9049 2.4473 47.1916 4.15871C48.4158 5.79517 48.9842 6.41352 50.1241 6.4104C51.264 6.40728 51.8323 5.79515 53.0566 4.15869C54.3276 2.46289 56.0672 0.136267 59.5275 0.136267C59.8206 0.131171 60.1119 0.184517 60.3843 0.293189C60.6566 0.401864 60.9046 0.563684 61.1137 0.769218C61.3228 0.974754 61.489 1.21987 61.6023 1.49029C61.7157 1.76071 61.7741 2.051 61.7741 2.34423C61.7741 2.63746 61.7157 2.92776 61.6024 3.19818C61.489 3.4686 61.3229 3.71372 61.1137 3.91925C60.9046 4.12478 60.6566 4.28661 60.3842 4.39528C60.1119 4.50395 59.8206 4.55731 59.5275 4.55221C58.3876 4.55533 57.816 5.17056 56.5918 6.80702C55.3208 8.50281 53.5812 10.8295 50.1241 10.8263C46.6669 10.8232 44.9399 8.5153 43.6563 6.80701C42.4321 5.17055 41.8606 4.55532 40.7207 4.55219C39.5808 4.54907 39.0155 5.17056 37.7913 6.80702C36.5171 8.50594 34.7744 10.8294 31.3204 10.8295C27.8663 10.8294 26.1362 8.51843 24.8558 6.80702C23.6315 5.17056 23.0569 4.5522 21.9201 4.5522C20.7834 4.5522 20.215 5.17055 18.9907 6.80701C17.7166 8.50593 15.9739 10.8295 12.5199 10.8295C9.06581 10.8295 7.33879 8.51532 6.05523 6.80703C4.82789 5.16745 4.2595 4.55534 3.1196 4.55221C2.82993 4.5533 2.54296 4.49669 2.2754 4.3857C2.00784 4.27471 1.76505 4.11155 1.56121 3.90574Z" fill="#2D60A4"/>
</svg>
